# xmcd CD database file
#
# Track frame offsets:
#	182
#	26582
#	43840
#	64055
#	75322
#	108075
#	122635
#	148227
#
# Disc length: 2719 seconds
#
# Revision: 1
# Processed by: cddbd v1.5.1PL0 Copyright (c) Steve Scherf et al.
# Submitted via: CDex 1.51
#
DISCID=650a9d08
DTITLE=Don Byas, Dexter Gordon, Ben Webster  - The best of Jazz Saxophone
DYEAR=1994
DGENRE=Jazz
TTITLE0=Johny Griffin - Sophisticated lady
TTITLE1=Sonny Stitt - Stardust
TTITLE2=Bud Freeman - Meet you in San Juan
TTITLE3=Zoot Sims - I hear a rhapsody
TTITLE4=Don Byas - Billie's bounce
TTITLE5=Wardell Gray - One for Prez
TTITLE6=Ben Webster - Gone with the wind
TTITLE7=Dexter Gordon - There will never be an other You
EXTD=YEAR: 1994
EXTT0=
EXTT1=
EXTT2=
EXTT3=
EXTT4=
EXTT5=
EXTT6=
EXTT7=
PLAYORDER=
